<svg width="110" height="23" viewBox="0 0 110 23" fill="none" xmlns="http://www.w3.org/2000/svg">
<path d="M9.35156 3.53516H7.83984C7.64453 3.53516 7.44141 3.55859 7.23047 3.60547C7.02734 3.64453 6.83984 3.71094 6.66797 3.80469C6.49609 3.89844 6.35547 4.01953 6.24609 4.16797C6.13672 4.31641 6.08203 4.49609 6.08203 4.70703V4.73047V8.84375C6.08203 9.44531 5.99609 9.97656 5.82422 10.4375C5.65234 10.8906 5.42969 11.2852 5.15625 11.6211C5.48438 12.043 5.71484 12.4961 5.84766 12.9805C5.98828 13.4648 6.05859 13.918 6.05859 14.3398V18.4883C6.05859 18.7617 6.12891 18.9805 6.26953 19.1445C6.41016 19.3008 6.57812 19.4219 6.77344 19.5078C6.96875 19.5859 7.16406 19.6367 7.35938 19.6602C7.55469 19.6758 7.70703 19.6836 7.81641 19.6836H9.32812V22.7656H7.79297C7.47266 22.7656 7.12891 22.7305 6.76172 22.6602C6.40234 22.5977 6.04297 22.4922 5.68359 22.3438C5.33203 22.2031 4.99219 22.0195 4.66406 21.793C4.34375 21.5664 4.05859 21.293 3.80859 20.9727C3.56641 20.6523 3.37109 20.2852 3.22266 19.8711C3.08203 19.457 3.01172 18.9883 3.01172 18.4648V14.3633C3.01172 13.9492 2.90234 13.6406 2.68359 13.4375C2.47266 13.2344 2.17578 13.1328 1.79297 13.1328C1.57422 13.1328 1.37109 13.0938 1.18359 13.0156C0.996094 12.9297 0.832031 12.8203 0.691406 12.6875C0.558594 12.5469 0.453125 12.3828 0.375 12.1953C0.296875 12.0078 0.257812 11.8086 0.257812 11.5977C0.257812 11.3867 0.296875 11.1914 0.375 11.0117C0.453125 10.8242 0.558594 10.6641 0.691406 10.5312C0.832031 10.3906 0.992188 10.2812 1.17188 10.2031C1.35938 10.1172 1.55859 10.0703 1.76953 10.0625C2.19141 10.0625 2.50781 9.96094 2.71875 9.75781C2.92969 9.54688 3.03516 9.24219 3.03516 8.84375V4.70703C3.03516 4.03516 3.17188 3.4375 3.44531 2.91406C3.71875 2.39062 4.08203 1.94922 4.53516 1.58984C4.98828 1.23047 5.5 0.957031 6.07031 0.769531C6.64844 0.582031 7.23828 0.488281 7.83984 0.488281H9.35156V3.53516ZM21.6094 5.31641L14.625 11.5742L21.6094 17.6914H17.2148L11.5547 12.7227C11.2031 12.4336 11.0273 12.0508 11.0273 11.5742C11.0273 11.3555 11.0703 11.1484 11.1562 10.9531C11.25 10.7578 11.375 10.5898 11.5312 10.4492L17.2617 5.31641H21.6094ZM92.3203 5.31641L98.0625 10.4492C98.2188 10.5898 98.3398 10.7578 98.4258 10.9531C98.5195 11.1484 98.5664 11.3555 98.5664 11.5742C98.5664 11.8008 98.5195 12.0156 98.4258 12.2188C98.332 12.4141 98.2031 12.582 98.0391 12.7227L92.3672 17.6914H87.9844L94.9688 11.5742L87.9844 5.31641H92.3203ZM109.324 11.5977C109.324 11.8086 109.285 12.0078 109.207 12.1953C109.129 12.3828 109.02 12.5469 108.879 12.6875C108.746 12.8203 108.586 12.9297 108.398 13.0156C108.219 13.0938 108.023 13.1328 107.812 13.1328C107.414 13.1328 107.105 13.2344 106.887 13.4375C106.676 13.6406 106.57 13.9492 106.57 14.3633L106.594 18.4648C106.594 18.9883 106.52 19.457 106.371 19.8711C106.223 20.2852 106.023 20.6523 105.773 20.9727C105.523 21.293 105.234 21.5664 104.906 21.793C104.586 22.0195 104.246 22.2031 103.887 22.3438C103.535 22.4922 103.176 22.5977 102.809 22.6602C102.449 22.7305 102.109 22.7656 101.789 22.7656H100.277L100.254 19.6836H101.789C101.891 19.6836 102.039 19.6758 102.234 19.6602C102.43 19.6367 102.621 19.5859 102.809 19.5078C103.004 19.4219 103.172 19.3008 103.312 19.1445C103.453 18.9805 103.523 18.7617 103.523 18.4883V14.3398C103.523 13.918 103.594 13.4648 103.734 12.9805C103.883 12.4961 104.113 12.043 104.426 11.6211C104.152 11.2852 103.926 10.8906 103.746 10.4375C103.574 9.97656 103.488 9.44531 103.488 8.84375V4.73047V4.70703C103.449 4.48828 103.375 4.30469 103.266 4.15625C103.164 4.00781 103.035 3.88672 102.879 3.79297C102.723 3.69922 102.547 3.63281 102.352 3.59375C102.164 3.55469 101.969 3.53516 101.766 3.53516H100.23V0.488281H101.766C102.398 0.488281 103.004 0.589844 103.582 0.792969C104.16 0.988281 104.668 1.27344 105.105 1.64844C105.551 2.01562 105.902 2.46094 106.16 2.98438C106.418 3.5 106.547 4.07422 106.547 4.70703C106.547 4.76172 106.551 5.13281 106.559 5.82031C106.566 6.5 106.57 7.50781 106.57 8.84375C106.57 9.24219 106.672 9.54688 106.875 9.75781C107.078 9.96094 107.391 10.0625 107.812 10.0625C108.023 10.0703 108.219 10.1172 108.398 10.2031C108.586 10.2812 108.746 10.3906 108.879 10.5312C109.02 10.6641 109.129 10.8242 109.207 11.0117C109.285 11.1914 109.324 11.3867 109.324 11.5977Z" fill="url(#paint0_linear_20_2)"/>
<path d="M38.3203 20H35.2734V11.5977C35.2734 11.1992 35.1719 10.8984 34.9688 10.6953C34.7656 10.4844 34.4609 10.3789 34.0547 10.3789H28.5586V7.33203H34.0547C34.3438 7.33203 34.6484 7.36719 34.9688 7.4375C35.2891 7.5 35.6055 7.60156 35.918 7.74219C36.2383 7.88281 36.543 8.06641 36.832 8.29297C37.1211 8.51172 37.375 8.78125 37.5938 9.10156C37.8125 9.41406 37.9883 9.77734 38.1211 10.1914C38.2539 10.6055 38.3203 11.0742 38.3203 11.5977V20ZM27.3281 20H24.2812V1.97656H27.3281V20ZM54.7383 11.5273C54.7383 11.9492 54.6641 12.4062 54.5156 12.8984C54.3672 13.3828 54.125 13.8359 53.7891 14.2578C53.4609 14.6719 53.0273 15.0195 52.4883 15.3008C51.957 15.582 51.3086 15.7227 50.543 15.7227H45.0469V12.8281H50.543C50.957 12.8281 51.2773 12.7031 51.5039 12.4531C51.7305 12.1953 51.8438 11.8789 51.8438 11.5039C51.8438 11.1055 51.7148 10.793 51.457 10.5664C51.207 10.3398 50.9023 10.2266 50.543 10.2266H45.0469C44.6328 10.2266 44.3125 10.3555 44.0859 10.6133C43.8594 10.8633 43.7461 11.1758 43.7461 11.5508V15.8047C43.7461 16.2109 43.8711 16.5273 44.1211 16.7539C44.3789 16.9805 44.6953 17.0938 45.0703 17.0938H50.543V20H45.0469C44.625 20 44.168 19.9258 43.6758 19.7773C43.1914 19.6289 42.7383 19.3906 42.3164 19.0625C41.9023 18.7266 41.5547 18.293 41.2734 17.7617C40.9922 17.2227 40.8516 16.5703 40.8516 15.8047V11.5273C40.8516 11.1055 40.9258 10.6523 41.0742 10.168C41.2227 9.67578 41.4609 9.22266 41.7891 8.80859C42.125 8.38672 42.5586 8.03516 43.0898 7.75391C43.6289 7.47266 44.2812 7.33203 45.0469 7.33203H50.543C50.9648 7.33203 51.418 7.40625 51.9023 7.55469C52.3945 7.70312 52.8477 7.94531 53.2617 8.28125C53.6836 8.60938 54.0352 9.04297 54.3164 9.58203C54.5977 10.1133 54.7383 10.7617 54.7383 11.5273ZM62.3555 20H60.9961C60.5586 20 60.0898 19.9258 59.5898 19.7773C59.0977 19.6289 58.6367 19.3867 58.207 19.0508C57.7773 18.707 57.4219 18.2656 57.1406 17.7266C56.8594 17.1797 56.7188 16.5117 56.7188 15.7227V1.97656H59.7656V15.7227C59.7656 16.0977 59.8828 16.3984 60.1172 16.625C60.3516 16.8438 60.6445 16.9531 60.9961 16.9531H62.3555V20ZM69.8789 20H68.5195C68.082 20 67.6133 19.9258 67.1133 19.7773C66.6211 19.6289 66.1602 19.3867 65.7305 19.0508C65.3008 18.707 64.9453 18.2656 64.6641 17.7266C64.3828 17.1797 64.2422 16.5117 64.2422 15.7227V1.97656H67.2891V15.7227C67.2891 16.0977 67.4062 16.3984 67.6406 16.625C67.875 16.8438 68.168 16.9531 68.5195 16.9531H69.8789V20ZM85.6172 15.7227C85.6172 16.2461 85.5508 16.7188 85.418 17.1406C85.2852 17.5547 85.1094 17.9219 84.8906 18.2422C84.6719 18.5547 84.418 18.8242 84.1289 19.0508C83.8398 19.2695 83.5352 19.4492 83.2148 19.5898C82.9023 19.7305 82.582 19.8359 82.2539 19.9062C81.9336 19.9688 81.6289 20 81.3398 20H75.8438C75.4219 20 74.9609 19.9258 74.4609 19.7773C73.9609 19.6289 73.4961 19.3867 73.0664 19.0508C72.6445 18.707 72.2891 18.2656 72 17.7266C71.7188 17.1797 71.5781 16.5117 71.5781 15.7227V11.5977C71.5781 10.8164 71.7188 10.1562 72 9.61719C72.2891 9.07031 72.6445 8.62891 73.0664 8.29297C73.4961 7.94922 73.9609 7.70312 74.4609 7.55469C74.9609 7.40625 75.4219 7.33203 75.8438 7.33203H81.3398C82.1211 7.33203 82.7852 7.47266 83.332 7.75391C83.8789 8.03516 84.3203 8.39062 84.6562 8.82031C84.9922 9.24219 85.2344 9.70312 85.3828 10.2031C85.5391 10.7031 85.6172 11.168 85.6172 11.5977V15.7227ZM82.5703 11.6211C82.5703 11.1992 82.4648 10.8867 82.2539 10.6836C82.043 10.4805 81.7383 10.3789 81.3398 10.3789H75.8672C75.4609 10.3789 75.1523 10.4844 74.9414 10.6953C74.7305 10.8984 74.625 11.1992 74.625 11.5977V15.7227C74.625 16.1211 74.7305 16.4258 74.9414 16.6367C75.1523 16.8477 75.4609 16.9531 75.8672 16.9531H81.3398C81.7539 16.9531 82.0625 16.8477 82.2656 16.6367C82.4688 16.4258 82.5703 16.1211 82.5703 15.7227V11.6211Z" fill="black"/>
<defs>
<linearGradient id="paint0_linear_20_2" x1="13.1522" y1="1.5" x2="35.2877" y2="43.2354" gradientUnits="userSpaceOnUse">
<stop stop-color="#C94B4B"/>
<stop offset="0.5" stop-color="#4B134F"/>
<stop offset="1" stop-color="#037629"/>
</linearGradient>
</defs>
</svg>
